<svg xmlns="http://www.w3.org/2000/svg" viewBox="0 0 44 31"><defs><style>.cls-1{fill:#f12742;}</style></defs><title>leaper</title><g id="Layer_2" data-name="Layer 2"><g id="Layer_1-2" data-name="Layer 1"><path class="cls-1" d="M36.81,11.53a15.28,15.28,0,0,0-29.62,0A23,23,0,0,0,0,23.2a51.41,51.41,0,0,1,7.73-2.06,15.26,15.26,0,0,0,28.54,0A51.41,51.41,0,0,1,44,23.2,23,23,0,0,0,36.81,11.53ZM17.3,11.26c-.67,2.17-2.66,3.47-4.45,2.91s-2.71-2.78-2-5,2.66-3.47,4.45-2.91S18,9.08,17.3,11.26Zm13.84,2.91c-1.79.57-3.79-.74-4.45-2.91s.25-4.39,2-5,3.79.74,4.45,2.91-.26,4.38-2.05,4.95Z"/></g></g></svg>