<?xml version="1.0" standalone="no"?>
<!DOCTYPE svg PUBLIC "-//W3C//DTD SVG 20010904//EN"
 "http://www.w3.org/TR/2001/REC-SVG-20010904/DTD/svg10.dtd">
<svg version="1.0" xmlns="http://www.w3.org/2000/svg"
 width="282.000000pt" height="282.000000pt" viewBox="0 0 282.000000 282.000000"
 preserveAspectRatio="xMidYMid meet">
<metadata>
Created by potrace 1.11, written by Peter Selinger 2001-2013
</metadata>
<g transform="translate(0.000000,282.000000) scale(0.100000,-0.100000)"
fill="#000000" stroke="none">
<path d="M1895 2076 c-202 -47 -369 -167 -462 -334 -164 -294 -86 -672 182
-874 131 -99 264 -141 430 -134 117 5 193 24 290 71 221 107 363 324 369 562
5 171 -16 261 -88 383 -83 142 -198 238 -360 301 -69 27 -97 32 -191 35 -71 2
-131 -1 -170 -10z m231 -71 c118 -17 257 -95 343 -192 200 -225 211 -559 26
-786 -107 -132 -293 -219 -465 -219 -67 0 -81 2 -165 22 -234 58 -429 299
-439 541 -6 171 57 340 173 457 82 83 202 154 284 168 18 3 48 8 67 12 40 9
106 8 176 -3z"/>
<path d="M130 2053 c1 -7 332 -486 409 -590 17 -23 31 -47 31 -53 0 -5 -94
-152 -210 -325 -115 -174 -210 -318 -210 -321 0 -3 20 -4 45 -2 l44 3 188 279
c104 154 193 281 198 282 6 2 61 -70 123 -159 63 -89 152 -217 200 -284 l86
-123 43 0 c24 0 43 3 43 6 0 4 -32 52 -71 108 -289 413 -369 530 -369 538 0 5
92 146 205 313 113 167 208 310 211 319 5 13 -2 16 -37 16 -34 -1 -48 -6 -60
-23 -9 -12 -91 -134 -184 -272 -92 -137 -173 -256 -180 -263 -10 -11 -50 40
-212 270 l-200 283 -47 3 c-25 2 -46 -1 -46 -5z"/>
</g>
</svg>
