<svg xmlns="http://www.w3.org/2000/svg" viewBox="0 0 84.61 100"><defs><style>.cls-1{fill:#823a7b;}</style></defs><title>android</title><g id="Layer_2" data-name="Layer 2"><g id="Capa_1" data-name="Capa 1"><path class="cls-1" d="M6.19,32.39a6,6,0,0,0-4.39,1.8A5.9,5.9,0,0,0,0,38.52V64.36a6,6,0,0,0,1.8,4.39,6,6,0,0,0,4.39,1.8,5.88,5.88,0,0,0,4.36-1.8,6,6,0,0,0,1.77-4.39V38.52a5.9,5.9,0,0,0-1.8-4.33A5.9,5.9,0,0,0,6.19,32.39Z"/><path class="cls-1" d="M55.95,9.19l4.27-7.87a.79.79,0,0,0-.3-1.2.83.83,0,0,0-1.2.36L54.39,8.41a30.14,30.14,0,0,0-24.16,0L25.9.48A.83.83,0,0,0,24.7.12a.79.79,0,0,0-.3,1.2l4.27,7.87a26.35,26.35,0,0,0-10.34,9.23,23.3,23.3,0,0,0-3.85,13H70.07a23.31,23.31,0,0,0-3.85-13A26.46,26.46,0,0,0,55.95,9.19ZM31.28,20.64a2.25,2.25,0,0,1-1.65.69A2.15,2.15,0,0,1,28,20.64a2.4,2.4,0,0,1,0-3.3,2.16,2.16,0,0,1,1.62-.69,2.34,2.34,0,0,1,1.65,4Zm25.33,0a2.16,2.16,0,0,1-1.62.69,2.34,2.34,0,0,1,0-4.69,2.16,2.16,0,0,1,1.62.69,2.4,2.4,0,0,1,0,3.3Z"/><path class="cls-1" d="M14.72,73.56a6.56,6.56,0,0,0,6.61,6.61h4.45l.06,13.64a6,6,0,0,0,1.8,4.39A5.9,5.9,0,0,0,32,100a6.16,6.16,0,0,0,6.19-6.19V80.17h8.29V93.81a6.19,6.19,0,1,0,12.38,0V80.17h4.51a6.56,6.56,0,0,0,6.55-6.61v-40H14.72Z"/><path class="cls-1" d="M78.43,32.39a6,6,0,0,0-4.33,1.77,5.88,5.88,0,0,0-1.8,4.36V64.36a6,6,0,0,0,1.8,4.39,5.9,5.9,0,0,0,4.33,1.8,6.15,6.15,0,0,0,6.19-6.19V38.52a5.88,5.88,0,0,0-1.8-4.36A6,6,0,0,0,78.43,32.39Z"/></g></g></svg>