<svg xmlns="http://www.w3.org/2000/svg" viewBox="0 0 84.98 100"><defs><style>.cls-1{fill:#00d1ae;}</style></defs><title>linux</title><g id="Layer_2" data-name="Layer 2"><g id="Capa_1" data-name="Capa 1"><path class="cls-1" d="M41,24.43a.32.32,0,0,1-.33.33h-.33c-.33,0-.33-.33-.66-.66a1.16,1.16,0,0,1-.33-.66c0-.33,0-.33.33-.33l.66.33c.33.33.66.66.66,1m-6-3.31c0-1.66-.66-2.65-1.66-2.65a.32.32,0,0,1-.33.33v.66h1c0,.66.33,1,.33,1.66H35M46.6,19.47c.66,0,1,.66,1.32,1.66h.66a1.22,1.22,0,0,1-.33-1,1.22,1.22,0,0,0-.33-1c-.33-.33-.66-.66-1-.66a1.16,1.16,0,0,1-.66.33c0,.33.33.33.33.66m-9.93,5.3c-.33,0-.33,0-.33-.33a1.22,1.22,0,0,1,.33-1,1.45,1.45,0,0,0,1-.33.32.32,0,0,1,.33.33c0,.33-.33.66-1,1.32h-.33M33,24.43c-1.32-.66-1.66-1.66-1.66-3.31A2.79,2.79,0,0,1,32,18.81a1.82,1.82,0,0,1,1.66-1c.66,0,1,.33,1.66,1a9.67,9.67,0,0,1,.66,3v.66h.33v-.33c.33,0,.33-.66.33-2a4.92,4.92,0,0,0-.66-3,3,3,0,0,0-2.65-1.66A2.49,2.49,0,0,0,31,17.15a7.79,7.79,0,0,0-.79,4,5.42,5.42,0,0,0,1.79,4c.33-.33.66-.33,1-.66M74.42,71.12c.33,0,.33-.13.33-.43a3.6,3.6,0,0,0-1.32-2.55,8.08,8.08,0,0,0-4.64-1.89c-.33,0-.66,0-.66,0a2.25,2.25,0,0,0-.66-.07c-.33,0-1-.1-1.32-.17a26.33,26.33,0,0,0,1.32-8.18,13,13,0,0,0-2-7.62c-1.32-2-2.65-3-4.3-3.31-.33.33-.33.33-.33.66a8.29,8.29,0,0,1,4.3,4,15.78,15.78,0,0,1,1.32,6.62,23.14,23.14,0,0,1-1.66,8.11,7.5,7.5,0,0,0-3.64,3.68c0,.3,0,.46.33.46a3.92,3.92,0,0,0,.66-.86c.66-.56,1-1.13,1.66-1.69A4.92,4.92,0,0,1,66.47,67a11.25,11.25,0,0,1,4.3.7,4,4,0,0,1,2.32,1.42q.5.74,1,1.39a.76.76,0,0,0,.33.63M44,23.11a2.48,2.48,0,0,1-.33-1.66,4.45,4.45,0,0,1,.66-3,2.86,2.86,0,0,1,2-1,3.35,3.35,0,0,1,2.32,1.32,7.79,7.79,0,0,1,.66,2.65q0,2.48-2,3a1.16,1.16,0,0,0,.66.33c.66,0,1,.33,1.66.66a29.38,29.38,0,0,0,.66-5,7.51,7.51,0,0,0-1-4.3,4.25,4.25,0,0,0-3.31-1.32,5.34,5.34,0,0,0-3,1,4.4,4.4,0,0,0-1,2.65,9.17,9.17,0,0,0,1,4.3c.33,0,.66.33,1,.33m4,5.3c-4.3,3-7.62,4.3-10.26,4.3A10.51,10.51,0,0,1,31,30.06a7.24,7.24,0,0,0,1,1.66l2,2a6.54,6.54,0,0,0,4.64,2c2.32,0,5-1.32,8.28-3.64l3-2a3.35,3.35,0,0,0,1.32-2.32c0-.33,0-.66-.33-.66-.33-.66-2-1.66-5.3-2.65a19.34,19.34,0,0,0-6.62-2q-1.49,0-5,2c-2,1.32-3.31,2.65-3.31,4a4.1,4.1,0,0,1,.66,1c2,1.66,4,2.65,6,2.65,2.65,0,6-1.32,10.26-4.64v.66a.32.32,0,0,1,.33.33m7.62,66.88a7.08,7.08,0,0,0,8.28,3.44,4.32,4.32,0,0,0,1.66-.63c.33-.23.66-.46,1-.73a4,4,0,0,0,1-.56l5.63-4.87a22.29,22.29,0,0,1,4.3-2.78,28.54,28.54,0,0,1,3.31-1.62A5.91,5.91,0,0,0,83,86.35a3.42,3.42,0,0,0,.66-1.92,3,3,0,0,0-1.32-2.22,6.74,6.74,0,0,0-2-1.13,7.64,7.64,0,0,1-2.32-1.66,8.93,8.93,0,0,1-1.66-3.61l-.33-1.92c-.33-.89-.33-1.56-.66-1.92,0-.1,0-.13-.33-.13a1.82,1.82,0,0,0-1.32.86c-.66.56-1.32,1.19-2,1.85-.33.66-1.32,1.26-2,1.82a6,6,0,0,1-2.65.86c-2.65,0-4-.73-5-2.15a12.07,12.07,0,0,1-1.32-3.68c-.66-.56-1-.86-1.66-.86-1.66,0-2.32,1.72-2.32,5.2v10.3a10.51,10.51,0,0,0-.33,2,11.64,11.64,0,0,0-.33,3.51l-.66,3.68v.06m-48-1.75a54.32,54.32,0,0,1,10.63,2.88c4,1.46,6.46,2.22,7.35,2.22a7.23,7.23,0,0,0,5.83-3,4.9,4.9,0,0,0,.33-2.26q0-4.69-5.66-11.89l-2.25-3A31.29,31.29,0,0,1,22,75.58a28.31,28.31,0,0,0-1.82-3,8.94,8.94,0,0,0-2-2.28,6.8,6.8,0,0,0-2.95-1.52,4.48,4.48,0,0,0-2.81,1.36,4,4,0,0,0-.79,2.05A2,2,0,0,1,11,73.59a6,6,0,0,1-1.66.53c-.17,0-.46,0-.89,0H7.54A8.51,8.51,0,0,0,4,74.68,4.86,4.86,0,0,0,2.7,77.89a15.12,15.12,0,0,0,.4,2.68,14.83,14.83,0,0,1,.4,2.91,7.74,7.74,0,0,1-1.23,4.07A7.41,7.41,0,0,0,1,90.8c.33,1.28,2.52,2.19,6.52,2.72m11-30.1a20.61,20.61,0,0,1,1.82-7.78,21.82,21.82,0,0,1,3.54-6.29c-.07-.33-.23-.33-.5-.33l-.33-.33c-1,1-2.12,3.31-3.51,6.62a19.69,19.69,0,0,0-2.12,7.75,7.55,7.55,0,0,0,1,3.91,23.43,23.43,0,0,0,5.26,4.7l3.51,2.28C31,77.19,33,79.45,33,80.77a2.71,2.71,0,0,1-1.32,2.15,3.13,3.13,0,0,1-2.32,1.19c-.07,0-.1.07-.1.23s.33.7,1,2c1.39,1.89,4.37,2.81,8.34,2.81,7.28,0,12.91-3,17.22-8.94,0-1.66,0-2.68-.33-3.11V75.87a9.33,9.33,0,0,1,1-4.83,2.63,2.63,0,0,1,2.32-1.56,3.28,3.28,0,0,1,2,.73,50.14,50.14,0,0,0,.33-6.75,28.56,28.56,0,0,0-.66-7.81,17.45,17.45,0,0,0-1.66-5l-2-3c-.66-1-1-2-1.66-3a14.23,14.23,0,0,1-.66-4c-1-1.66-1.66-3.31-2.65-5-.66-1.66-1.32-3.31-2-4.64l-3,2.32c-3.31,2.32-6,3.31-8.28,3.31-2,0-3.64-.33-4.64-1.66l-2-1.66a8.63,8.63,0,0,1-1,3.64l-2.09,4a20.2,20.2,0,0,0-1.52,4.64A6.61,6.61,0,0,1,27.1,47l-2.48,5c-2.68,5-4,9.57-4,13.38a14.38,14.38,0,0,0,.2,2.35,4.91,4.91,0,0,1-2.22-4.3M42.27,94.74q-6.46,0-9.93,1.74v-.1a7.44,7.44,0,0,1-6.09,3,25.33,25.33,0,0,1-7.62-1.89A89.92,89.92,0,0,0,9.39,94.8c-.26-.08-.86-.19-1.82-.34S5.78,94.16,5,94a19.21,19.21,0,0,1-2.35-.68,5.82,5.82,0,0,1-2-1A1.87,1.87,0,0,1,0,90.89a4.87,4.87,0,0,1,.34-1.7c.21-.36.44-.73.68-1.06a6.42,6.42,0,0,0,.56-1A4.85,4.85,0,0,0,2,86.18a4.1,4.1,0,0,0,.33-1,5.11,5.11,0,0,0,.13-1c0-.33-.13-1.32-.4-3.08a29.84,29.84,0,0,1-.4-3.28,5,5,0,0,1,1.06-3.44,3,3,0,0,1,2.15-1.26H8.73a3.41,3.41,0,0,0,1.46-.56c.23-.53.43-1,.56-1.36s.23-.7.3-.83.13-.4.2-.56a4.57,4.57,0,0,1,.53-.76,2,2,0,0,1-.4-1.29,3.38,3.38,0,0,1,.07-.89,12,12,0,0,1,1.75-5.1l1.16-2.09a45.8,45.8,0,0,0,2.22-4.44,43.31,43.31,0,0,0,1.82-6,16.47,16.47,0,0,1,3.77-7l2.48-3a23.37,23.37,0,0,0,3.48-5,10.67,10.67,0,0,0,1-4.3c0-.66-.17-2.65-.53-6s-.5-6.62-.5-9.6a21.28,21.28,0,0,1,.63-5.63A11.77,11.77,0,0,1,31,4.3,8.88,8.88,0,0,1,35.31,1a22,22,0,0,1,7-1,9.17,9.17,0,0,1,3,.33,11.45,11.45,0,0,1,4,1,13.67,13.67,0,0,1,3.64,2.32,14.85,14.85,0,0,1,3.31,4.3,32.2,32.2,0,0,1,1.66,6.62c.33,1.66.33,3.31.66,5.63,0,2,.33,3.31.33,4.3.33,1,.33,2.32.66,4a11.86,11.86,0,0,0,1.32,3.64,24.69,24.69,0,0,0,2.32,4c1,1.66,2.32,3.31,3.64,5.3A33.2,33.2,0,0,1,73.39,52,27.82,27.82,0,0,1,76,64.2a22.5,22.5,0,0,1-1,6.65,1.45,1.45,0,0,1,1.32.73,9.29,9.29,0,0,1,1,3L77.69,77a3.9,3.9,0,0,0,1.66,2,7.36,7.36,0,0,0,2.32,1.49A10.75,10.75,0,0,1,84,81.95,2.94,2.94,0,0,1,85,84a3.22,3.22,0,0,1-1,2.55A5.19,5.19,0,0,1,81.67,88c-.66.33-2,1-4,1.93a36,36,0,0,0-5,3.58l-3.31,2.82a18.35,18.35,0,0,1-3.64,2.78,7.24,7.24,0,0,1-3.64.89l-2.32-.26a7.56,7.56,0,0,1-5.3-4,113.09,113.09,0,0,0-12.25-1"/></g></g></svg>