<svg xmlns="http://www.w3.org/2000/svg" viewBox="0 0 81.43 100"><defs><style>.cls-1{fill:#f9c553;}</style></defs><title>mac</title><g id="Layer_2" data-name="Layer 2"><g id="Capa_1" data-name="Capa 1"><g id="svg_1" data-name="svg 1"><path class="cls-1" d="M68,53.13c.14,15.13,13.27,20.17,13.42,20.23A54.7,54.7,0,0,1,74.5,87.58C70.34,93.67,66,99.74,59.2,99.87s-8.85-4-16.5-4-10,3.84-16.38,4.09c-6.58.25-11.59-6.59-15.79-12.66C1.93,74.92-4.63,52.25,4.18,37A24.48,24.48,0,0,1,24.87,24.42c6.46-.12,12.56,4.35,16.5,4.35s11.36-5.37,19.14-4.58c3.26.14,12.41,1.32,18.29,9.92-.47.29-10.92,6.38-10.81,19M55.42,16c3.49-4.23,5.84-10.11,5.2-16-5,.2-11.12,3.35-14.73,7.58-3.24,3.74-6.07,9.73-5.3,15.47,5.61.43,11.34-2.85,14.83-7.08"/></g></g></g></svg>