<svg xmlns="http://www.w3.org/2000/svg" viewBox="0 0 86.05 45.32"><defs><style>.cls-1{fill:#dd6f84;stroke:#dd6f84;}.cls-1,.cls-2{stroke-miterlimit:10;stroke-width:0.5px;}.cls-2{fill:#ff8960;stroke:#ff8960;}</style></defs><title>xo</title><g id="Layer_2" data-name="Layer 2"><g id="Layer_4" data-name="Layer 4"><path class="cls-1" d="M15,23.26a1.37,1.37,0,0,0,0-1.12L.48,1.34H3L16.7,20.69,29.78,1.34h2.57L18.3,22.13a.6.6,0,0,1-.16.36.24.24,0,0,0,0,.36L32.92,44H30.51L16.7,24.54,3.61,44H1.2Z"/><path class="cls-2" d="M58.69,44.61a19.63,19.63,0,0,1-5.18-1.73,21.57,21.57,0,0,1-4.66-3.09,24,24,0,0,1-3.77-4.13,20.79,20.79,0,0,1-2.61-4.86A23.3,23.3,0,0,1,41,23a22.07,22.07,0,0,1,1.13-7.35,22.45,22.45,0,0,1,3.37-6.38,21.6,21.6,0,0,1,5.26-5,24.31,24.31,0,0,1,6.74-3.13A23,23,0,0,1,65.35.29a17.53,17.53,0,0,1,5.78,1.28,32.51,32.51,0,0,1,5.22,2.73,20.93,20.93,0,0,1,4.54,4.26,27.91,27.91,0,0,1,3.25,5.3,17.32,17.32,0,0,1,1.49,5.5,37.37,37.37,0,0,1,.12,5.74,10.8,10.8,0,0,1-.44,3.09,29.76,29.76,0,0,1-1,2.85,20.18,20.18,0,0,1-4.13,6.74A22.07,22.07,0,0,1,74,42.44a24.11,24.11,0,0,1-7.43,2.37A22.49,22.49,0,0,1,58.69,44.61Zm1.52-1.85a17.93,17.93,0,0,0,6.86,0,21.52,21.52,0,0,0,6.38-2.29,19.49,19.49,0,0,0,6.14-5.18A19.69,19.69,0,0,0,83,28.63a20.54,20.54,0,0,0,.72-7.23,20.88,20.88,0,0,0-1.81-7.07A21.12,21.12,0,0,0,77.64,8.2a20.88,20.88,0,0,0-6.58-4.46A20.08,20.08,0,0,0,66,2.42a19.33,19.33,0,0,0-5.42,0,19.71,19.71,0,0,0-9.59,4.21,21.52,21.52,0,0,0-6.1,7.91,20.62,20.62,0,0,0-1.73,9.84,18.93,18.93,0,0,0,3.61,9.92A19,19,0,0,0,52.58,40,20.52,20.52,0,0,0,60.21,42.77Z"/></g></g></svg>